<svg width="65" height="58" viewBox="0 0 65 58" fill="none" xmlns="http://www.w3.org/2000/svg">
<path d="M65 12.6289C65 6.00149 59.6274 0.628906 53 0.628906H12.0004C5.37301 0.628906 0.000427246 6.00149 0.000427246 12.6289V45.5873C0.000427246 52.2147 5.37301 57.5873 12.0004 57.5873H53C59.6274 57.5873 65 52.2147 65 45.5873V12.6289Z" fill="#0053DA"/>
<path fill-rule="evenodd" clip-rule="evenodd" d="M49.3966 26.2162H35.2135V23.1924H49.3966V26.2162ZM46.8818 31.2144V28.1778H35.1883V31.2144H46.8818ZM35.1883 33.3959V36.5078H49.3966V33.4211L35.1883 33.3959Z" fill="white"/>
<path d="M15.6043 23.1922H24.4058C25.5347 23.1792 26.6625 23.2675 27.7756 23.4562C28.627 23.5978 29.4599 23.834 30.2589 24.1604C30.8872 24.4154 31.4692 24.7722 31.9815 25.2165C32.4093 25.592 32.7743 26.0335 33.0628 26.5242C33.3237 26.9785 33.5123 27.4704 33.6222 27.9827C33.7297 28.4763 33.7845 28.9801 33.7857 29.4853V30.0196C33.784 30.5137 33.7335 31.0066 33.6348 31.4908C33.5306 32.0087 33.3462 32.5073 33.088 32.9682C32.8028 33.4707 32.4424 33.9265 32.0192 34.3198C31.5131 34.787 30.933 35.1672 30.3028 35.4452C29.5003 35.8046 28.6552 36.0602 27.7881 36.2059C26.6678 36.4058 25.5311 36.4984 24.3932 36.4825H15.5917L15.6043 23.1922ZM19.7662 33.2887H24.0852C25.0386 33.3179 25.9909 33.1993 26.908 32.9368C27.4999 32.7666 28.0501 32.4754 28.5237 32.0817C28.8689 31.7901 29.1239 31.4063 29.2592 30.9752C29.3668 30.6117 29.4239 30.2351 29.429 29.8561V29.7493C29.4221 29.377 29.3672 29.0072 29.2655 28.6491C29.1389 28.2184 28.8926 27.8325 28.5552 27.5363C28.0847 27.138 27.5334 26.8464 26.9394 26.6814C26.0123 26.4273 25.0524 26.3128 24.0915 26.3419H19.7662V33.2887Z" fill="white"/>
</svg>
